<svg xmlns="http://www.w3.org/2000/svg" width="94" height="35" viewBox="0 0 94 35">
  <g id="i-line-share" transform="translate(-623 -800)">
    <rect id="Rectangle_313" data-name="Rectangle 313" width="94" height="35" rx="17.5" transform="translate(623 800)" fill="#1aa736"/>
    <g id="line" transform="translate(637.347 806.273)">
      <g id="Group_391" data-name="Group 391" transform="translate(0)">
        <g id="XMLID_21_">
          <g id="Group_387" data-name="Group 387" transform="translate(0.486 0.486)">
            <g id="Group_386" data-name="Group 386">
              <path id="Path_881" data-name="Path 881" d="M34.835,19.226c0,3.273-2.185,5.584-5.1,7.783l-7.283,5.569v-4.37c-5.7-.422-9.954-4.171-9.954-8.983,0-5.093,5-9.226,11.168-9.226S34.835,14.132,34.835,19.226Z" transform="translate(-12.5 -10)" fill="#fff"/>
            </g>
          </g>
          <g id="Group_389" data-name="Group 389" transform="translate(0)">
            <g id="Group_388" data-name="Group 388">
              <path id="Path_882" data-name="Path 882" d="M12.939,23.549a.486.486,0,0,1-.486-.486V19.138A12.351,12.351,0,0,1,5.5,16.21a8.676,8.676,0,0,1-3-6.5,8.92,8.92,0,0,1,3.448-6.9A12.863,12.863,0,0,1,14.153,0a12.863,12.863,0,0,1,8.206,2.814,8.92,8.92,0,0,1,3.448,6.9,7.618,7.618,0,0,1-1.548,4.578,17.49,17.49,0,0,1-3.743,3.593l-7.281,5.567A.485.485,0,0,1,12.939,23.549ZM14.153.971c-5.89,0-10.682,3.921-10.682,8.74a7.717,7.717,0,0,0,2.68,5.776,11.5,11.5,0,0,0,6.825,2.723.486.486,0,0,1,.45.484v3.387l6.5-4.972c2.55-1.925,4.908-4.153,4.908-7.4C24.835,4.892,20.043.971,14.153.971Z" transform="translate(-2.5 0)" fill="none"/>
            </g>
          </g>
        </g>
        <g id="Group_390" data-name="Group 390" transform="translate(4.856 7.04)">
          <path id="Path_883" data-name="Path 883" d="M219.137,147.971c.008-.183.015-1.714.02-2.385,0-.362.183-.57.485-.574s.495.2.5.562c0,1.276,0,2.551,0,3.827a.514.514,0,0,1-.355.555c-.275.094-.45-.053-.6-.254q-.927-1.2-1.855-2.394a.574.574,0,0,0-.235-.189v.367c0,.633.006,1.267,0,1.9,0,.464-.35.723-.715.551a.508.508,0,0,1-.293-.492q-.007-1.941,0-3.882a.511.511,0,0,1,.361-.531.521.521,0,0,1,.6.238C217.659,146.079,219.022,147.837,219.137,147.971Z" transform="translate(-210.563 -145.008)" fill="#1bd741"/>
          <path id="Path_884" data-name="Path 884" d="M318.129,148.021v.954c.462,0,.918,0,1.372,0a1.341,1.341,0,0,1,.379.047.483.483,0,0,1-.012.92,1.1,1.1,0,0,1-.3.043q-.908,0-1.817,0c-.456,0-.655-.2-.656-.654q-.007-1.844,0-3.688c0-.465.188-.645.654-.646q.977,0,1.953,0a.463.463,0,0,1,.489.363.443.443,0,0,1-.238.557,1.025,1.025,0,0,1-.4.069c-.366.009-.734,0-1.1,0-.109,0-.215.015-.309.022a.4.4,0,0,0-.031.078c-.083.893-.083.893.807.893.24,0,.478,0,.717,0,.343.006.553.183.565.469.014.318-.183.523-.558.538-.431.015-.863,0-1.294.006C318.286,148,318.216,148.013,318.129,148.021Z" transform="translate(-306.675 -144.999)" fill="#1bd741"/>
          <path id="Path_885" data-name="Path 885" d="M103.513,149.053h1.3a2.6,2.6,0,0,1,.3.005.525.525,0,0,1,.5.5.513.513,0,0,1-.511.508c-.312.016-.624,0-.935,0-.358,0-.716.006-1.073,0a.53.53,0,0,1-.592-.6q0-1.872,0-3.742c0-.424.178-.648.506-.644s.5.236.5.654c0,.981,0,1.963,0,2.944Z" transform="translate(-102.5 -145.077)" fill="#1bd741"/>
          <path id="Path_886" data-name="Path 886" d="M179.214,147.516c0,.652,0,1.3,0,1.954,0,.39-.137.529-.5.527s-.487-.135-.488-.508q-.006-2,0-3.992c0-.376.127-.49.5-.489s.485.12.488.5C179.215,146.177,179.214,146.847,179.214,147.516Z" transform="translate(-174.547 -145.008)" fill="#1bd741"/>
        </g>
      </g>
    </g>
    <text id="分享" transform="translate(668 822)" fill="#fff" font-size="14" font-family="YuGothicUI-Regular, Yu Gothic UI"><tspan x="0" y="0">分享</tspan></text>
  </g>
</svg>
